<?xml version="1.0" encoding="iso-8859-1"?>
<!-- Generator: Adobe Illustrator 18.0.0, SVG Export Plug-In . SVG Version: 6.00 Build 0)  -->
<!DOCTYPE svg PUBLIC "-//W3C//DTD SVG 1.1//EN" "http://www.w3.org/Graphics/SVG/1.1/DTD/svg11.dtd">
<svg version="1.1" id="Capa_1" xmlns="http://www.w3.org/2000/svg" xmlns:xlink="http://www.w3.org/1999/xlink" x="0px" y="0px"
	 viewBox="0 0 397.928 397.928" fill="white" fill-opacity="0.6" style="enable-background:new 0 0 397.928 397.928;" xml:space="preserve">
<g>
	<path d="M352.744,210.555c-0.871,1.966-1.98,4.307-3.33,6.858C350.766,214.86,351.875,212.52,352.744,210.555z"/>
	<path d="M7.57,241.057c11.039,0,16.16,4.052,22.645,9.182c7.375,5.835,15.736,12.449,32.039,12.449
		c16.303,0,24.662-6.614,32.037-12.449c6.484-5.13,11.605-9.182,22.643-9.182c11.037,0,16.16,4.052,22.642,9.182
		c7.377,5.835,15.734,12.449,32.039,12.449c16.303,0,24.662-6.614,32.037-12.449c6.484-5.13,11.607-9.182,22.645-9.182
		s16.158,4.052,22.645,9.182c7.375,5.835,15.734,12.449,32.037,12.449c16.305,0,24.664-6.613,32.041-12.448
		c6.486-5.13,11.607-9.183,22.648-9.183c11.041,0,16.162,4.052,22.648,9.183c7.375,5.835,15.736,12.448,32.041,12.448
		c4.182,0,7.57-3.389,7.57-7.571c0-4.182-3.389-7.571-7.57-7.571c-11.041,0-16.162-4.052-22.648-9.183
		c-3.043-2.406-6.264-4.939-10.129-7.091c7.246-11.567,10.695-21.806,10.854-22.287c0.174-0.521,0.275-1.046,0.324-1.57h8.107
		c0.008,0.001,0.014,0,0.021,0c3.865,0,7-3.134,7-7c0-1.574-0.52-3.026-1.396-4.195c-2.926-4.508-26.15-39.425-56.486-60.176
		c-49.172-33.637-104.736-42.37-107.078-42.725c-2.959-0.446-5.875,1.032-7.258,3.685c-1.383,2.653-0.926,5.892,1.137,8.06
		c0.248,0.261,24.908,26.205,33.854,37.357c3.348,4.173,4.344,9.297,2.541,13.054c-2.924,6.093-12.883,9.588-27.322,9.588
		c-17.955,0-27.52-5.953-37.645-12.255c-9.73-6.055-19.791-12.316-36.07-12.316H50.574c-13.463,0-36.049,7.785-36.049,59.923
		c0,3.866,3.133,7,7,7h11.721c0.623,6.878,3.545,21.001,16.088,37.512c-3.52-1.658-6.449-3.972-9.725-6.563
		c-7.377-5.835-15.734-12.449-32.039-12.449c-4.182,0-7.57,3.39-7.57,7.571C0,237.668,3.389,241.057,7.57,241.057z M28.678,193.415
		c0.859-19.127,5.672-38.923,21.896-38.923h97.588c12.279,0,19.875,4.728,28.672,10.203c10.822,6.735,23.088,14.369,45.043,14.369
		c26.063,0,36.107-9.534,39.945-17.531c4.182-8.715,2.557-19.395-4.242-27.871c-4.379-5.458-12.064-13.996-19.088-21.624
		c20.172,5.46,51.299,16.196,79.608,35.561c1.221,0.835,2.43,1.698,3.627,2.584c0.33,0.244,0.652,0.503,0.98,0.751
		c0.865,0.653,1.73,1.306,2.584,1.982c0.318,0.254,0.629,0.518,0.947,0.775c0.854,0.689,1.707,1.378,2.545,2.086
		c0.262,0.222,0.517,0.452,0.779,0.675c0.883,0.757,1.766,1.516,2.633,2.29c0.199,0.179,0.392,0.362,0.592,0.541
		c0.918,0.829,1.834,1.662,2.73,2.506c0.139,0.13,0.272,0.263,0.41,0.394c0.951,0.899,1.893,1.803,2.816,2.713
		c0.082,0.08,0.158,0.16,0.238,0.239c0.975,0.963,1.936,1.929,2.879,2.898c0.043,0.046,0.086,0.092,0.131,0.138
		c0.971,1,1.928,2.002,2.861,3.001c0.004,0.003,0.006,0.007,0.01,0.01c7.611,8.141,13.984,16.147,18.523,22.235H39.537H28.678z
		 M47.285,207.415h306.787c-0.109,0.275-0.23,0.571-0.359,0.879c-0.023,0.06-0.051,0.126-0.078,0.187
		c-0.109,0.265-0.225,0.538-0.346,0.824c-0.025,0.058-0.053,0.118-0.078,0.178c-0.135,0.316-0.277,0.644-0.428,0.984
		c-0.014,0.029-0.025,0.059-0.039,0.088c-0.869,1.965-1.979,4.305-3.33,6.858c0,0.001,0,0.001,0,0.002v0
		c-1.137,2.145-2.44,4.437-3.92,6.78c-0.494,0.781-1.006,1.568-1.539,2.356c-2.52-0.407-5.266-0.636-8.287-0.636
		c-16.305,0-24.666,6.614-32.041,12.449c-6.486,5.13-11.607,9.182-22.648,9.182c-11.037,0-16.158-4.052-22.645-9.182
		c-7.375-5.835-15.734-12.449-32.037-12.449c-16.303,0-24.662,6.614-32.037,12.449c-6.486,5.13-11.607,9.182-22.645,9.182
		c-11.037,0-16.16-4.052-22.643-9.182c-7.377-5.835-15.736-12.449-32.039-12.449c-16.303,0-24.662,6.614-32.037,12.449
		c-4.6,3.639-8.539,6.714-14.363,8.207c-0.322,0.082-0.623,0.18-0.957,0.252C51.928,229.25,48.094,214.044,47.285,207.415z"/>
	<path d="M390.357,289.546c-11.041,0-16.162-4.052-22.648-9.183c-7.377-5.835-15.736-12.448-32.041-12.448
		c-16.305,0-24.666,6.614-32.041,12.449c-6.486,5.13-11.607,9.182-22.648,9.182c-11.037,0-16.158-4.052-22.645-9.182
		c-7.375-5.835-15.734-12.449-32.037-12.449c-16.303,0-24.662,6.614-32.037,12.449c-6.486,5.13-11.607,9.182-22.645,9.182
		c-11.037,0-16.16-4.052-22.643-9.182c-7.377-5.835-15.736-12.449-32.039-12.449c-16.303,0-24.662,6.614-32.037,12.449
		c-6.484,5.13-11.605,9.182-22.643,9.182c-11.039,0-16.16-4.052-22.645-9.182c-7.377-5.835-15.734-12.449-32.039-12.449
		c-4.182,0-7.57,3.39-7.57,7.571c0,4.182,3.389,7.571,7.57,7.571c11.039,0,16.16,4.052,22.645,9.182
		c7.375,5.835,15.736,12.449,32.039,12.449c16.303,0,24.662-6.614,32.037-12.449c6.484-5.13,11.605-9.182,22.643-9.182
		c11.037,0,16.16,4.052,22.642,9.182c7.377,5.835,15.734,12.449,32.039,12.449c16.303,0,24.662-6.614,32.037-12.449
		c6.484-5.13,11.607-9.182,22.645-9.182s16.158,4.052,22.645,9.182c7.375,5.835,15.734,12.449,32.037,12.449
		c16.305,0,24.664-6.613,32.041-12.448c6.486-5.13,11.607-9.183,22.648-9.183c11.041,0,16.162,4.052,22.648,9.183
		c7.375,5.835,15.736,12.448,32.041,12.448c4.182,0,7.57-3.389,7.57-7.571S394.539,289.546,390.357,289.546z"/>
</g>
<g>
</g>
<g>
</g>
<g>
</g>
<g>
</g>
<g>
</g>
<g>
</g>
<g>
</g>
<g>
</g>
<g>
</g>
<g>
</g>
<g>
</g>
<g>
</g>
<g>
</g>
<g>
</g>
<g>
</g>
</svg>
